<svg xmlns="http://www.w3.org/2000/svg" version="1.1" xmlns:xlink="http://www.w3.org/1999/xlink" xmlns:svgjs="http://svgjs.com/svgjs" width="1440" height="560" preserveAspectRatio="none" viewBox="0 0 1440 560"><g mask="url(&quot;#SvgjsMask2415&quot;)" fill="none"><rect width="1440" height="560" x="0" y="0" fill="url(#SvgjsLinearGradient2416)"></rect><path d="M716.06,753.964C772.383,756.123,834.169,749.231,865.047,702.078C898.299,651.3,894.578,582.964,861.263,532.227C830.671,485.636,771.741,472.67,716.06,475.174C665.316,477.456,618.084,500.852,591.844,544.344C564.685,589.359,558.82,646.14,585.622,691.369C611.973,735.837,664.409,751.984,716.06,753.964" fill="rgba(0, 0, 0, 1)" class="triangle-float3"></path><path d="M260.413,378.358C310.795,378.148,349.399,339.087,374.422,295.358C399.241,251.986,415.11,197.82,387.594,156.107C361.717,116.879,307.381,120.982,260.413,122.531C217.28,123.953,170.886,128.116,146.975,164.042C120.788,203.387,122.638,254.542,144.748,296.314C168.449,341.091,209.75,378.569,260.413,378.358" fill="rgba(0, 0, 0, 1)" class="triangle-float2"></path><path d="M824.506,343.697C839.546,343.66,851.366,332.328,858.767,319.235C866.03,306.386,868.173,291.251,861.629,278.021C854.259,263.121,841.123,250.431,824.506,249.971C807.231,249.493,791.347,260.392,783.647,275.864C776.644,289.936,781.838,305.942,789.948,319.406C797.735,332.333,809.415,343.735,824.506,343.697" fill="rgba(0, 0, 0, 1)" class="triangle-float2"></path><path d="M1283.878,335.028C1310.499,337.442,1340.143,331.145,1353.682,308.097C1367.34,284.847,1359.111,255.377,1343.638,233.293C1330.372,214.36,1306.983,207.688,1283.878,208.474C1262.33,209.207,1241.495,218.431,1230.77,237.134C1220.095,255.75,1222.792,278.294,1233.025,297.156C1243.827,317.068,1261.318,332.982,1283.878,335.028" fill="rgba(0, 0, 0, 1)" class="triangle-float1"></path><path d="M350.433,594.753C404.179,591.233,445.462,553.783,473.65,507.887C503.615,459.097,527.767,400.443,500.792,349.938C472.678,297.299,410.042,274.356,350.433,277.188C295.562,279.795,251.946,316.489,222.942,363.141C191.777,413.268,167.224,474.382,195.687,526.091C224.853,579.077,290.079,598.706,350.433,594.753" fill="rgba(0, 0, 0, 1)" class="triangle-float3"></path><path d="M1315.373,136.364C1338.89,136.827,1361.944,126.712,1374.083,106.564C1386.597,85.794,1386.311,59.712,1374.22,38.693C1362.096,17.616,1339.603,2.473,1315.373,4.5C1293.533,6.327,1281.971,28.081,1271.419,47.29C1261.43,65.473,1251.353,85.725,1260.534,104.329C1270.575,124.676,1292.687,135.917,1315.373,136.364" fill="rgba(0, 0, 0, 1)" class="triangle-float3"></path><path d="M457.354,394.093C494.286,395.995,532.17,383.138,551.839,351.821C572.671,318.651,573.868,275.182,552.758,242.188C532.982,211.279,494.038,204.987,457.354,204.149C418.577,203.263,373.279,203.942,354.085,237.647C334.991,271.175,357.092,310.683,378.348,342.884C396.879,370.957,423.762,392.363,457.354,394.093" fill="rgba(0, 0, 0, 1)" class="triangle-float2"></path><path d="M157.081,120.505C180.15,120.175,195.843,98.985,205.882,78.213C214.505,60.37,214.177,39.956,204.316,22.767C194.404,5.49,176.999,-6.809,157.081,-6.851C137.096,-6.893,119.695,5.378,109.503,22.569C99.082,40.146,96.87,61.265,105.799,79.645C116.035,100.716,133.657,120.84,157.081,120.505" fill="rgba(0, 0, 0, 1)" class="triangle-float1"></path><path d="M797.722,184.003C826.011,185.448,856.239,177.62,870.842,153.348C885.801,128.485,878.535,97.96,864.898,72.348C850.178,44.703,829.041,16.273,797.722,16.023C766.129,15.771,742.089,42.662,728.665,71.262C717.185,95.722,722.375,123.444,736.488,146.485C749.889,168.363,772.099,182.694,797.722,184.003" fill="rgba(0, 0, 0, 1)" class="triangle-float1"></path><path d="M134.891,700.544C194.782,699.412,243.271,657.521,273.049,605.545C302.627,553.918,314.991,490.495,284.504,439.4C254.613,389.305,193.193,372.044,134.891,374.003C80.34,375.836,30.58,402.564,1.733,448.9C-28.984,498.239,-39.806,559.576,-12.623,610.947C16.217,665.448,73.241,701.71,134.891,700.544" fill="rgba(0, 0, 0, 1)" class="triangle-float3"></path><path d="M175.324,253.572C199.38,253.293,222.138,240.934,233.559,219.76C244.473,199.527,240.127,175.261,228.15,155.639C216.722,136.917,197.22,125.649,175.324,124.355C150.613,122.894,123.587,127.703,110.447,148.681C96.682,170.657,101.06,199.086,114.7,221.139C127.621,242.03,150.762,253.857,175.324,253.572" fill="rgba(0, 0, 0, 1)" class="triangle-float1"></path><path d="M42.435,382.11C75.559,382.49,103.659,361.934,121.849,334.249C142.449,302.896,159.461,264.136,141.637,231.126C123.22,197.017,81.195,186.586,42.435,187.172C4.867,187.74,-34.235,200.784,-51.707,234.046C-68.323,265.679,-53.055,302.309,-33.883,332.462C-16.43,359.911,9.909,381.737,42.435,382.11" fill="rgba(0, 0, 0, 1)" class="triangle-float2"></path><path d="M1162.648,460.183C1192.829,461.336,1217.662,439.365,1233.048,413.375C1248.781,386.798,1257.953,353.331,1241.299,327.321C1225.463,302.588,1191.916,301.004,1162.648,303.423C1138.188,305.445,1116.132,317.535,1103.696,338.694C1091.08,360.158,1090.119,385.931,1100.988,408.33C1113.554,434.225,1133.886,459.084,1162.648,460.183" fill="rgba(0, 0, 0, 1)" class="triangle-float3"></path><path d="M346.59,447.29C404.145,445.401,452.717,409.907,482.486,360.612C513.466,309.312,528.313,246.41,499.699,193.754C469.972,139.05,408.783,107.668,346.59,110.533C288.717,113.199,245.427,156.851,216.109,206.819C186.331,257.57,166.245,318.353,194.308,370.072C223.4,423.688,285.623,449.291,346.59,447.29" fill="rgba(0, 0, 0, 1)" class="triangle-float3"></path><path d="M694.014,300.982C726.893,301.76,758.034,283.097,773.094,253.86C787.106,226.659,777.895,195.098,762.034,168.932C746.875,143.924,723.228,124.717,694.014,123.398C662.41,121.971,630.206,134.833,614.452,162.268C598.752,189.61,605.478,222.913,621.165,250.263C636.944,277.772,662.31,300.231,694.014,300.982" fill="rgba(0, 0, 0, 1)" class="triangle-float1"></path><path d="M10.827,560.601C36.698,561.197,63.662,554.235,77.542,532.394C92.334,509.119,91.216,479.303,77.81,455.203C64.01,430.395,39.199,411.493,10.827,412.46C-16.263,413.383,-36.062,435.529,-48.691,459.513C-60.336,481.627,-63.452,507.902,-50.771,529.439C-38.258,550.691,-13.828,560.033,10.827,560.601" fill="rgba(0, 0, 0, 1)" class="triangle-float3"></path><path d="M1188.695,115.005C1221.579,116.917,1256.8,110.537,1275.253,83.251C1295.75,52.943,1297.925,12.46,1279.373,-19.076C1261.05,-50.222,1224.828,-64.377,1188.695,-63.885C1153.489,-63.406,1118.252,-47.999,1102.193,-16.665C1087.18,12.629,1099.899,46.597,1117.973,74.108C1133.999,98.502,1159.557,113.311,1188.695,115.005" fill="rgba(0, 0, 0, 1)" class="triangle-float2"></path><path d="M721.374,575.131C747.799,572.811,772.166,561,785.821,538.257C799.907,514.795,803.237,485.385,789.45,461.746C775.755,438.264,748.555,427.374,721.374,427.755C694.904,428.126,671.812,441.995,656.529,463.611C637.785,490.122,617.489,523.536,633.81,551.604C650.093,579.607,689.105,577.964,721.374,575.131" fill="rgba(0, 0, 0, 1)" class="triangle-float2"></path><path d="M906.225,567.541C942.814,567.033,981.969,557.397,999.533,525.295C1016.615,494.073,1001.251,457.653,983.094,427.043C965.427,397.259,940.854,368.252,906.225,367.994C871.27,367.733,845.593,396.067,827.344,425.882C807.98,457.518,790.278,495.54,808.323,527.947C826.678,560.91,868.5,568.064,906.225,567.541" fill="rgba(0, 0, 0, 1)" class="triangle-float2"></path><path d="M613.197,119.594C637.665,121.077,657.702,101.348,668.915,79.55C679.168,59.618,677.442,36.171,666.036,16.875C654.845,-2.059,635.185,-14.206,613.197,-14.713C590.271,-15.242,566.411,-6.076,555.961,14.336C546.139,33.521,557.772,54.502,568.068,73.437C579.085,93.697,590.177,118.199,613.197,119.594" fill="rgba(0, 0, 0, 1)" class="triangle-float3"></path></g><defs><mask id="SvgjsMask2415"><rect width="1440" height="560" fill="#ffffff"></rect></mask><linearGradient x1="100%" y1="50%" x2="0%" y2="50%" gradientUnits="userSpaceOnUse" id="SvgjsLinearGradient2416"><stop stop-color="rgba(51, 102, 178, 1)" offset="0"></stop><stop stop-color="rgba(120, 4, 141, 1)" offset="1"></stop></linearGradient><style>
            @keyframes float1 {
                0%{transform: translate(0, 0)}
                50%{transform: translate(-10px, 0)}
                100%{transform: translate(0, 0)}
            }

            .triangle-float1 {
                animation: float1 5s infinite;
            }

            @keyframes float2 {
                0%{transform: translate(0, 0)}
                50%{transform: translate(-5px, -5px)}
                100%{transform: translate(0, 0)}
            }

            .triangle-float2 {
                animation: float2 4s infinite;
            }

            @keyframes float3 {
                0%{transform: translate(0, 0)}
                50%{transform: translate(0, -10px)}
                100%{transform: translate(0, 0)}
            }

            .triangle-float3 {
                animation: float3 6s infinite;
            }
        </style></defs></svg>